<?xml version="1.0" encoding="UTF-8" standalone="no"?>
<!-- Created with Inkscape (http://www.inkscape.org/) -->

<svg
   xmlns:dc="http://purl.org/dc/elements/1.1/"
   xmlns:cc="http://creativecommons.org/ns#"
   xmlns:rdf="http://www.w3.org/1999/02/22-rdf-syntax-ns#"
   xmlns:svg="http://www.w3.org/2000/svg"
   xmlns="http://www.w3.org/2000/svg"
   xmlns:sodipodi="http://sodipodi.sourceforge.net/DTD/sodipodi-0.dtd"
   xmlns:inkscape="http://www.inkscape.org/namespaces/inkscape"
   width="99.658691mm"
   height="35.61821mm"
   viewBox="0 0 353.12135 126.20625"
   id="svg8906"
   version="1.1"
   inkscape:version="0.91 r13725"
   sodipodi:docname="hist_dist_1.svg">
  <defs
     id="defs8908">
    <clipPath
       clipPathUnits="userSpaceOnUse"
       id="clipPath8446">
      <path
         d="m 144.36,671.94 283.465,0 0,-102.047 -283.465,0 0,102.047 z m 112.681,-63.731 -1.27,-5.032 -1.269,5.032 0,-6.793 2.539,0 0,6.793 z m -2.539,25.414 1.269,5.033 1.27,-5.033 0,6.794 -2.539,0"
         id="path8448"
         inkscape:connector-curvature="0" />
    </clipPath>
    <clipPath
       clipPathUnits="userSpaceOnUse"
       id="clipPath8452">
      <path
         d="m 144.36,671.94 283.465,0 0,-102.047 -283.465,0 0,102.047 z m 112.681,-63.731 -1.27,-5.032 -1.269,5.032 0,-6.793 2.539,0"
         id="path8454"
         inkscape:connector-curvature="0" />
    </clipPath>
    <clipPath
       clipPathUnits="userSpaceOnUse"
       id="clipPath8426">
      <path
         d="m 144.36,671.94 283.465,0 0,-102.047 -283.465,0 0,102.047 z m 36.526,-63.731 -1.269,-5.032 -1.269,5.032 0,-6.793 2.538,0 0,6.793 z m -2.538,25.414 1.269,5.033 1.269,-5.033 0,6.794 -2.538,0"
         id="path8428"
         inkscape:connector-curvature="0" />
    </clipPath>
    <clipPath
       clipPathUnits="userSpaceOnUse"
       id="clipPath8432">
      <path
         d="m 144.36,671.94 283.465,0 0,-102.047 -283.465,0 0,102.047 z m 36.526,-63.731 -1.269,-5.032 -1.269,5.032 0,-6.793 2.538,0"
         id="path8434"
         inkscape:connector-curvature="0" />
    </clipPath>
    <clipPath
       clipPathUnits="userSpaceOnUse"
       id="clipPath8406">
      <path
         d="m 144.36,671.94 283.465,0 0,-102.047 -283.465,0 0,102.047 z m 23.834,-63.731 -1.27,-5.032 -1.269,5.032 0,-6.793 2.539,0 0,6.793 z m -2.539,25.414 1.269,5.033 1.27,-5.033 0,6.794 -2.539,0"
         id="path8408"
         inkscape:connector-curvature="0" />
    </clipPath>
    <clipPath
       clipPathUnits="userSpaceOnUse"
       id="clipPath8412">
      <path
         d="m 144.36,671.94 283.465,0 0,-102.047 -283.465,0 0,102.047 z m 23.834,-63.731 -1.27,-5.032 -1.269,5.032 0,-6.793 2.539,0"
         id="path8414"
         inkscape:connector-curvature="0" />
    </clipPath>
    <clipPath
       clipPathUnits="userSpaceOnUse"
       id="clipPath8378">
      <path
         d="m 144.36,671.94 283.465,0 0,-102.047 -283.465,0 0,102.047 z m 99.988,-63.731 -1.269,-5.032 -1.269,5.032 0,-6.793 2.538,0 0,6.793 z m -2.538,25.414 1.269,5.033 1.269,-5.033 0,6.794 -2.538,0"
         id="path8380"
         inkscape:connector-curvature="0" />
    </clipPath>
    <clipPath
       clipPathUnits="userSpaceOnUse"
       id="clipPath8384">
      <path
         d="m 144.36,671.94 283.465,0 0,-102.047 -283.465,0 0,102.047 z m 99.988,-63.731 -1.269,-5.032 -1.269,5.032 0,-6.793 2.538,0"
         id="path8386"
         inkscape:connector-curvature="0" />
    </clipPath>
    <clipPath
       clipPathUnits="userSpaceOnUse"
       id="clipPath8354">
      <path
         d="m 144.36,671.94 283.465,0 0,-102.047 -283.465,0 0,102.047 z m 264.99,-63.731 -1.269,-5.032 -1.27,5.032 0,-6.793 2.539,0 0,6.793 z m -2.539,25.414 1.27,5.033 1.269,-5.033 0,6.794 -2.539,0"
         id="path8356"
         inkscape:connector-curvature="0" />
    </clipPath>
    <clipPath
       clipPathUnits="userSpaceOnUse"
       id="clipPath8360">
      <path
         d="m 144.36,671.94 283.465,0 0,-102.047 -283.465,0 0,102.047 z m 264.99,-63.731 -1.269,-5.032 -1.27,5.032 0,-6.793 2.539,0"
         id="path8362"
         inkscape:connector-curvature="0" />
    </clipPath>
    <clipPath
       clipPathUnits="userSpaceOnUse"
       id="clipPath8334">
      <path
         d="m 144.36,671.94 283.465,0 0,-102.047 -283.465,0 0,102.047 z m 201.528,-63.731 -1.269,-5.032 -1.27,5.032 0,-6.793 2.539,0 0,6.793 z m -2.539,25.414 1.27,5.033 1.269,-5.033 0,6.794 -2.539,0"
         id="path8336"
         inkscape:connector-curvature="0" />
    </clipPath>
    <clipPath
       clipPathUnits="userSpaceOnUse"
       id="clipPath8340">
      <path
         d="m 144.36,671.94 283.465,0 0,-102.047 -283.465,0 0,102.047 z m 201.528,-63.731 -1.269,-5.032 -1.27,5.032 0,-6.793 2.539,0"
         id="path8342"
         inkscape:connector-curvature="0" />
    </clipPath>
  </defs>
  <sodipodi:namedview
     id="base"
     pagecolor="#ffffff"
     bordercolor="#666666"
     borderopacity="1.0"
     inkscape:pageopacity="0.0"
     inkscape:pageshadow="2"
     inkscape:zoom="0.35"
     inkscape:cx="645.84639"
     inkscape:cy="-779.75401"
     inkscape:document-units="px"
     inkscape:current-layer="layer1"
     showgrid="false"
     fit-margin-top="0"
     fit-margin-left="0"
     fit-margin-right="0"
     fit-margin-bottom="0"
     inkscape:window-width="1920"
     inkscape:window-height="1027"
     inkscape:window-x="3192"
     inkscape:window-y="453"
     inkscape:window-maximized="1" />
  <metadata
     id="metadata8911">
    <rdf:RDF>
      <cc:Work
         rdf:about="">
        <dc:format>image/svg+xml</dc:format>
        <dc:type
           rdf:resource="http://purl.org/dc/dcmitype/StillImage" />
        <dc:title></dc:title>
      </cc:Work>
    </rdf:RDF>
  </metadata>
  <g
     inkscape:label="Layer 1"
     inkscape:groupmode="layer"
     id="layer1"
     transform="translate(270.84639,373.59806)">
    <text
       y="-354.24832"
       x="-269.74155"
       transform="scale(1.0044061,0.99561323)"
       style="font-style:italic;font-variant:normal;font-weight:bold;font-size:14.21611309px;font-family:'Times New Roman';-inkscape-font-specification:Times-BoldItalic;writing-mode:lr-tb;fill:#000000;fill-opacity:1;fill-rule:nonzero;stroke:none"
       id="text8288">
      <tspan
         x="-269.74155"
         y="-354.24832"
         id="tspan8290">h</tspan>
    </text>
    <text
       y="-351.3364"
       x="-261.85535"
       transform="scale(1.0043619,0.99565704)"
       style="font-variant:normal;font-weight:normal;font-size:9.47741032px;font-family:'Times New Roman';-inkscape-font-specification:Times-Roman;writing-mode:lr-tb;fill:#000000;fill-opacity:1;fill-rule:nonzero;stroke:none"
       id="text8292">
      <tspan
         x="-261.85535"
         y="-351.3364"
         id="tspan8294">1</tspan>
    </text>
    <text
       y="-260.52719"
       x="-269.74155"
       transform="scale(1.0044061,0.99561323)"
       style="font-style:italic;font-variant:normal;font-weight:bold;font-size:14.21611309px;font-family:'Times New Roman';-inkscape-font-specification:Times-BoldItalic;writing-mode:lr-tb;fill:#000000;fill-opacity:1;fill-rule:nonzero;stroke:none"
       id="text8296">
      <tspan
         x="-269.74155"
         y="-260.52719"
         id="tspan8298">k</tspan>
    </text>
    <text
       y="-257.61938"
       x="-261.85535"
       transform="scale(1.0043619,0.99565704)"
       style="font-variant:normal;font-weight:normal;font-size:9.47741032px;font-family:'Times New Roman';-inkscape-font-specification:Times-Roman;writing-mode:lr-tb;fill:#000000;fill-opacity:1;fill-rule:nonzero;stroke:none"
       id="text8300">
      <tspan
         x="-261.85535"
         y="-257.61938"
         id="tspan8302">1</tspan>
    </text>
    <text
       y="-355.3017"
       x="-64.395058"
       transform="scale(1.0044061,0.99561323)"
       style="font-style:italic;font-variant:normal;font-weight:bold;font-size:14.21611309px;font-family:'Times New Roman';-inkscape-font-specification:Times-BoldItalic;writing-mode:lr-tb;fill:#000000;fill-opacity:1;fill-rule:nonzero;stroke:none"
       id="text8304">
      <tspan
         x="-64.395058"
         y="-355.3017"
         id="tspan8306">h</tspan>
    </text>
    <text
       y="-352.38974"
       x="-56.498615"
       transform="scale(1.0043619,0.99565704)"
       style="font-variant:normal;font-weight:normal;font-size:9.47741032px;font-family:'Times New Roman';-inkscape-font-specification:Times-Roman;writing-mode:lr-tb;fill:#000000;fill-opacity:1;fill-rule:nonzero;stroke:none"
       id="text8308">
      <tspan
         x="-56.498615"
         y="-352.38974"
         id="tspan8310">2</tspan>
    </text>
    <text
       y="-260.52719"
       x="-65.18409"
       transform="scale(1.0044061,0.99561323)"
       style="font-style:italic;font-variant:normal;font-weight:bold;font-size:14.21611309px;font-family:'Times New Roman';-inkscape-font-specification:Times-BoldItalic;writing-mode:lr-tb;fill:#000000;fill-opacity:1;fill-rule:nonzero;stroke:none"
       id="text8312">
      <tspan
         x="-65.18409"
         y="-260.52719"
         id="tspan8314">k</tspan>
    </text>
    <path
       d="m 82.077456,-247.58931 0,-7.8625 m -111.05875,7.8625 0,-7.8625 m 15.86625,7.8625 0,-7.8625 m 15.8649997,7.8625 0,-7.8625 m 15.8662503,7.8625 0,-7.8625 m 15.865,7.8625 0,-7.8625 m 15.86625,7.8625 0,-7.8625 m 15.865,7.8625 0,-7.8625"
       style="fill:none;stroke:#000000;stroke-width:0.39500001;stroke-linecap:butt;stroke-linejoin:miter;stroke-miterlimit:10;stroke-dasharray:none;stroke-opacity:1"
       id="path8316"
       inkscape:connector-curvature="0" />
    <text
       y="-257.61938"
       x="-57.288914"
       transform="scale(1.0043619,0.99565704)"
       style="font-variant:normal;font-weight:normal;font-size:9.47741032px;font-family:'Times New Roman';-inkscape-font-specification:Times-Roman;writing-mode:lr-tb;fill:#000000;fill-opacity:1;fill-rule:nonzero;stroke:none"
       id="text8318">
      <tspan
         x="-57.288914"
         y="-257.61938"
         id="tspan8320">2</tspan>
    </text>
    <path
       d="m -44.846294,-341.94806 15.865,0 0,-31.4525 -15.865,0 0,31.4525 z"
       style="fill:#000000;fill-opacity:1;fill-rule:evenodd;stroke:#000000;stroke-width:0.39500001;stroke-linecap:butt;stroke-linejoin:miter;stroke-miterlimit:10;stroke-dasharray:none;stroke-opacity:1"
       id="path8322"
       inkscape:connector-curvature="0" />
    <path
       d="m -44.846294,-247.58931 15.865,0 0,-31.4525 -15.865,0 0,31.4525 z"
       style="fill:#000000;fill-opacity:1;fill-rule:evenodd;stroke:#000000;stroke-width:0.39500001;stroke-linecap:butt;stroke-linejoin:miter;stroke-miterlimit:10;stroke-dasharray:none;stroke-opacity:1"
       id="path8324"
       inkscape:connector-curvature="0" />
    <path
       d="m -28.981294,-247.58931 15.865,0 0,-31.4525 -15.865,0 0,31.4525 z"
       style="fill:#262626;fill-opacity:1;fill-rule:evenodd;stroke:#000000;stroke-width:0.39500001;stroke-linecap:butt;stroke-linejoin:miter;stroke-miterlimit:10;stroke-dasharray:none;stroke-opacity:1"
       id="path8326"
       inkscape:connector-curvature="0" />
    <path
       d="m 50.347456,-341.94806 15.865,0 0,-31.4525 -15.865,0 0,31.4525 z"
       style="fill:#e6e6e6;fill-opacity:1;fill-rule:evenodd;stroke:#000000;stroke-width:0.39500001;stroke-linecap:butt;stroke-linejoin:miter;stroke-miterlimit:10;stroke-dasharray:none;stroke-opacity:1"
       id="path8328"
       inkscape:connector-curvature="0" />
    <g
       transform="matrix(1.25,0,0,-1.25,-451.82129,465.65069)"
       id="g8330">
      <g
         id="g8332"
         clip-path="url(#clipPath8334)">
        <g
           id="g8338"
           clip-path="url(#clipPath8340)">
          <path
             d="m 344.619,639.788 0,-37.743"
             style="fill:none;stroke:#008f00;stroke-width:0.31600001;stroke-linecap:butt;stroke-linejoin:miter;stroke-miterlimit:10;stroke-dasharray:none;stroke-opacity:1"
             id="path8344"
             inkscape:connector-curvature="0" />
        </g>
      </g>
    </g>
    <path
       d="m -22.635044,-326.37806 1.5875,-6.29125 1.58625,6.29125 -3.17375,0 z"
       style="fill:#008f00;fill-opacity:1;fill-rule:evenodd;stroke:#008f00;stroke-width:0.39500001;stroke-linecap:butt;stroke-linejoin:miter;stroke-miterlimit:10;stroke-dasharray:none;stroke-opacity:1"
       id="path8346"
       inkscape:connector-curvature="0" />
    <path
       d="m -19.461294,-294.61056 -1.58625,6.29 -1.5875,-6.29 3.17375,0 z"
       style="fill:#008f00;fill-opacity:1;fill-rule:evenodd;stroke:#008f00;stroke-width:0.39500001;stroke-linecap:butt;stroke-linejoin:miter;stroke-miterlimit:10;stroke-dasharray:none;stroke-opacity:1"
       id="path8348"
       inkscape:connector-curvature="0" />
    <g
       transform="matrix(1.25,0,0,-1.25,-451.82129,465.65069)"
       id="g8350">
      <g
         id="g8352"
         clip-path="url(#clipPath8354)">
        <g
           id="g8358"
           clip-path="url(#clipPath8360)">
          <path
             d="m 408.081,639.788 0,-37.743"
             style="fill:none;stroke:#008f00;stroke-width:0.31600001;stroke-linecap:butt;stroke-linejoin:miter;stroke-miterlimit:10;stroke-dasharray:none;stroke-opacity:1"
             id="path8364"
             inkscape:connector-curvature="0" />
        </g>
      </g>
    </g>
    <path
       d="m 56.692456,-326.37806 1.5875,-6.29125 1.58625,6.29125 -3.17375,0 z"
       style="fill:#008f00;fill-opacity:1;fill-rule:evenodd;stroke:#008f00;stroke-width:0.39500001;stroke-linecap:butt;stroke-linejoin:miter;stroke-miterlimit:10;stroke-dasharray:none;stroke-opacity:1"
       id="path8366"
       inkscape:connector-curvature="0" />
    <path
       d="m 59.866206,-294.61056 -1.58625,6.29 -1.5875,-6.29 3.17375,0 z"
       style="fill:#008f00;fill-opacity:1;fill-rule:evenodd;stroke:#008f00;stroke-width:0.39500001;stroke-linecap:butt;stroke-linejoin:miter;stroke-miterlimit:10;stroke-dasharray:none;stroke-opacity:1"
       id="path8368"
       inkscape:connector-curvature="0" />
    <text
       y="-300.01828"
       x="-99.935432"
       transform="scale(1.0044115,0.99560786)"
       style="font-variant:normal;font-weight:normal;font-size:37.91025543px;font-family:'Times New Roman';-inkscape-font-specification:Times-Roman;writing-mode:lr-tb;fill:#000000;fill-opacity:1;fill-rule:nonzero;stroke:none"
       id="text8370">
      <tspan
         x="-99.935432"
         y="-300.01828"
         id="tspan8372">&gt;</tspan>
    </text>
    <g
       transform="matrix(1.25,0,0,-1.25,-451.82129,465.65069)"
       id="g8374">
      <g
         id="g8376"
         clip-path="url(#clipPath8378)">
        <g
           id="g8382"
           clip-path="url(#clipPath8384)">
          <path
             d="m 243.079,639.788 0,-37.743"
             style="fill:none;stroke:#008f00;stroke-width:0.31600001;stroke-linecap:butt;stroke-linejoin:miter;stroke-miterlimit:10;stroke-dasharray:none;stroke-opacity:1"
             id="path8388"
             inkscape:connector-curvature="0" />
        </g>
      </g>
    </g>
    <path
       d="m -149.55879,-326.37806 1.58625,-6.29125 1.58625,6.29125 -3.1725,0 z"
       style="fill:#008f00;fill-opacity:1;fill-rule:evenodd;stroke:#008f00;stroke-width:0.39500001;stroke-linecap:butt;stroke-linejoin:miter;stroke-miterlimit:10;stroke-dasharray:none;stroke-opacity:1"
       id="path8390"
       inkscape:connector-curvature="0" />
    <path
       d="m -146.38629,-294.61056 -1.58625,6.29 -1.58625,-6.29 3.1725,0 z"
       style="fill:#008f00;fill-opacity:1;fill-rule:evenodd;stroke:#008f00;stroke-width:0.39500001;stroke-linecap:butt;stroke-linejoin:miter;stroke-miterlimit:10;stroke-dasharray:none;stroke-opacity:1"
       id="path8392"
       inkscape:connector-curvature="0" />
    <path
       d="m -251.0988,-341.94806 15.865,0 0,-31.4525 -15.865,0 0,31.4525 z"
       style="fill:#000000;fill-opacity:1;fill-rule:evenodd;stroke:#000000;stroke-width:0.39500001;stroke-linecap:butt;stroke-linejoin:miter;stroke-miterlimit:10;stroke-dasharray:none;stroke-opacity:1"
       id="path8394"
       inkscape:connector-curvature="0" />
    <path
       d="m -235.23255,-247.58931 15.865,0 0,-31.4525 -15.865,0 0,31.4525 z"
       style="fill:#262626;fill-opacity:1;fill-rule:evenodd;stroke:#000000;stroke-width:0.39500001;stroke-linecap:butt;stroke-linejoin:miter;stroke-miterlimit:10;stroke-dasharray:none;stroke-opacity:1"
       id="path8396"
       inkscape:connector-curvature="0" />
    <path
       d="m -155.90504,-341.94806 15.865,0 0,-31.4525 -15.865,0 0,31.4525 z"
       style="fill:#e6e6e6;fill-opacity:1;fill-rule:evenodd;stroke:#000000;stroke-width:0.39500001;stroke-linecap:butt;stroke-linejoin:miter;stroke-miterlimit:10;stroke-dasharray:none;stroke-opacity:1"
       id="path8398"
       inkscape:connector-curvature="0" />
    <path
       d="m -140.04004,-247.58931 15.865,0 0,-31.4525 -15.865,0 0,31.4525 z"
       style="fill:#ffffff;fill-opacity:1;fill-rule:evenodd;stroke:#000000;stroke-width:0.39500001;stroke-linecap:butt;stroke-linejoin:miter;stroke-miterlimit:10;stroke-dasharray:none;stroke-opacity:1"
       id="path8400"
       inkscape:connector-curvature="0" />
    <g
       transform="matrix(1.25,0,0,-1.25,-451.82129,465.65069)"
       id="g8402">
      <g
         id="g8404"
         clip-path="url(#clipPath8406)">
        <g
           id="g8410"
           clip-path="url(#clipPath8412)">
          <path
             d="m 166.924,639.788 0,-37.743"
             style="fill:none;stroke:#008f00;stroke-width:0.31600001;stroke-linecap:butt;stroke-linejoin:miter;stroke-miterlimit:10;stroke-dasharray:none;stroke-opacity:1"
             id="path8416"
             inkscape:connector-curvature="0" />
        </g>
      </g>
    </g>
    <path
       d="m -244.75255,-326.37806 1.58625,-6.29125 1.5875,6.29125 -3.17375,0 z"
       style="fill:#008f00;fill-opacity:1;fill-rule:evenodd;stroke:#008f00;stroke-width:0.39500001;stroke-linecap:butt;stroke-linejoin:miter;stroke-miterlimit:10;stroke-dasharray:none;stroke-opacity:1"
       id="path8418"
       inkscape:connector-curvature="0" />
    <path
       d="m -241.5788,-294.61056 -1.5875,6.29 -1.58625,-6.29 3.17375,0 z"
       style="fill:#008f00;fill-opacity:1;fill-rule:evenodd;stroke:#008f00;stroke-width:0.39500001;stroke-linecap:butt;stroke-linejoin:miter;stroke-miterlimit:10;stroke-dasharray:none;stroke-opacity:1"
       id="path8420"
       inkscape:connector-curvature="0" />
    <g
       transform="matrix(1.25,0,0,-1.25,-451.82129,465.65069)"
       id="g8422">
      <g
         id="g8424"
         clip-path="url(#clipPath8426)">
        <g
           id="g8430"
           clip-path="url(#clipPath8432)">
          <path
             d="m 179.617,639.788 0,-37.743"
             style="fill:none;stroke:#008f00;stroke-width:0.31600001;stroke-linecap:butt;stroke-linejoin:miter;stroke-miterlimit:10;stroke-dasharray:none;stroke-opacity:1"
             id="path8436"
             inkscape:connector-curvature="0" />
        </g>
      </g>
    </g>
    <path
       d="m -228.8863,-326.37806 1.58625,-6.29125 1.58625,6.29125 -3.1725,0 z"
       style="fill:#008f00;fill-opacity:1;fill-rule:evenodd;stroke:#008f00;stroke-width:0.39500001;stroke-linecap:butt;stroke-linejoin:miter;stroke-miterlimit:10;stroke-dasharray:none;stroke-opacity:1"
       id="path8438"
       inkscape:connector-curvature="0" />
    <path
       d="m -225.7138,-294.61056 -1.58625,6.29 -1.58625,-6.29 3.1725,0 z"
       style="fill:#008f00;fill-opacity:1;fill-rule:evenodd;stroke:#008f00;stroke-width:0.39500001;stroke-linecap:butt;stroke-linejoin:miter;stroke-miterlimit:10;stroke-dasharray:none;stroke-opacity:1"
       id="path8440"
       inkscape:connector-curvature="0" />
    <g
       transform="matrix(1.25,0,0,-1.25,-451.82129,465.65069)"
       id="g8442">
      <g
         id="g8444"
         clip-path="url(#clipPath8446)">
        <g
           id="g8450"
           clip-path="url(#clipPath8452)">
          <path
             d="m 255.771,639.788 0,-37.743"
             style="fill:none;stroke:#008f00;stroke-width:0.31600001;stroke-linecap:butt;stroke-linejoin:miter;stroke-miterlimit:10;stroke-dasharray:none;stroke-opacity:1"
             id="path8456"
             inkscape:connector-curvature="0" />
        </g>
      </g>
    </g>
    <path
       d="m -133.69379,-326.37806 1.58625,-6.29125 1.5875,6.29125 -3.17375,0 z"
       style="fill:#008f00;fill-opacity:1;fill-rule:evenodd;stroke:#008f00;stroke-width:0.39500001;stroke-linecap:butt;stroke-linejoin:miter;stroke-miterlimit:10;stroke-dasharray:none;stroke-opacity:1"
       id="path8458"
       inkscape:connector-curvature="0" />
    <path
       d="m -130.52004,-294.61056 -1.5875,6.29 -1.58625,-6.29 3.17375,0 z"
       style="fill:#008f00;fill-opacity:1;fill-rule:evenodd;stroke:#008f00;stroke-width:0.39500001;stroke-linecap:butt;stroke-linejoin:miter;stroke-miterlimit:10;stroke-dasharray:none;stroke-opacity:1"
       id="path8460"
       inkscape:connector-curvature="0" />
    <path
       d="m -44.846294,-247.58931 0,-7.8625 m -95.193746,-86.49625 0,-7.8625 m 15.86625,7.8625 0,-7.8625 m -126.92501,102.22125 126.92501,0 m -126.92501,0 0,-7.8625 m 15.86625,7.8625 0,-7.8625 m 15.865,7.8625 0,-7.8625 m 15.865,7.8625 0,-7.8625 m 47.59751,-86.49625 0,-7.8625 m -95.19376,7.8625 126.92501,0 m -126.92501,0 0,-7.8625 m 15.86625,7.8625 0,-7.8625 m 15.865,7.8625 0,-7.8625 m 15.865,7.8625 0,-7.8625 m 15.86625,7.8625 0,-7.8625 m 15.865,7.8625 0,-7.8625 m -15.865,102.22125 0,-7.8625 m 190.3862557,-86.49625 0,-7.8625 m 15.8662503,7.8625 0,-7.8625 m 15.865,7.8625 0,-7.8625 m 15.86625,7.8625 0,-7.8625 m 15.865,7.8625 0,-7.8625 m 15.865,7.8625 0,-7.8625 m -126.92375,102.22125 126.92375,0 m -95.1925,-94.35875 0,-7.8625 m -158.656256,102.22125 0,-7.8625 m 15.86626,7.8625 0,-7.8625 m 15.865,7.8625 0,-7.8625 m 15.86625,7.8625 0,-7.8625 m 79.327496,-86.49625 126.92375,0 m -126.92375,0 0,-7.8625 m 15.865,7.8625 0,-7.8625"
       style="fill:none;stroke:#000000;stroke-width:0.39500001;stroke-linecap:butt;stroke-linejoin:miter;stroke-miterlimit:10;stroke-dasharray:none;stroke-opacity:1"
       id="path8462"
       inkscape:connector-curvature="0" />
  </g>
</svg>
